<svg width="615px" height="168px" viewBox="0 0 615 168" version="1.1" xmlns="http://www.w3.org/2000/svg" xmlns:xlink="http://www.w3.org/1999/xlink">
    <!-- Generator: Sketch 52.6 (67491) - http://www.bohemiancoding.com/sketch -->
    <title>Slice 1</title>
    <desc>Created with Sketch.</desc>
    <g id="Page-1" stroke="none" stroke-width="1" fill="none" fill-rule="evenodd">
        <g id="logo" fill="#FFFFFF">
            <path d="M0.894,167.244 C0.894,111.429 0.894,55.921 0.894,0.107 C178.439,0.107 355.524,0.107 533.261,0.107 C533.261,55.7 533.261,111.187 533.261,167.244 C355.944,167.244 178.718,167.244 0.894,167.244 Z M284.845,83.734 C284.731,50.672 257.284,23.509 224.328,23.845 C190.933,24.186 163.612,51.441 163.996,84.028 C164.391,117.426 191.361,144.031 224.54,143.752 C258.256,143.466 284.959,116.892 284.845,83.734 Z M403.442,140.406 C418.093,140.406 431.974,141.69 445.529,140.131 C471.626,137.131 490.173,115.684 492.622,87.898 C494.966,61.292 479.637,36.114 454.268,29.893 C438.121,25.932 420.882,26.412 403.443,24.838 C403.442,64.861 403.442,102.655 403.442,140.406 Z M135.33,26.784 C131.964,26.538 129.859,26.551 127.814,26.206 C118.889,24.705 114.248,28.051 111.09,37.01 C104.401,55.984 96.219,74.434 88.641,93.094 C87.308,96.374 85.926,99.638 83.988,104.301 C82.218,100.282 81.11,97.955 80.155,95.568 C71.794,74.661 63.53,53.713 55.027,32.865 C54.032,30.427 52.018,26.982 50.031,26.646 C44.818,25.768 39.357,26.349 32.708,26.349 C49.818,68.268 66.249,108.519 83.518,150.826 C101.183,108.529 117.984,68.308 135.33,26.784 Z M346.461,141.205 C346.461,102.572 346.461,64.888 346.461,26.762 C340.547,26.762 335.171,26.762 329.513,26.762 C329.513,65.173 329.513,103.051 329.513,141.205 C335.352,141.205 340.542,141.205 346.461,141.205 Z" id="Shape"></path>
            <path d="M540.329,158.041 C540.329,157.015 540.329,154.198 540.329,151.383 C540.329,129.456 540.329,107.53 540.329,85.067 C565.871,85.067 590.593,85.067 614.106,85.067 C589.867,109.041 565.011,133.628 540.329,158.041 Z" id="Path"></path>
            <path d="M182.586,83.352 C182.64,59.183 200.784,40.966 224.736,41.035 C248.595,41.104 266.532,59.456 266.523,83.789 C266.514,108.244 248.1,126.761 223.898,126.65 C200.658,126.542 182.533,107.546 182.586,83.352 Z" id="Path"></path>
            <path d="M421.727,123.687 C421.727,97.333 421.727,70.894 421.727,44.464 C436.318,40.082 457.166,46.55 466.157,58.23 C476.178,71.251 477.092,92.24 468.249,106.268 C459.395,120.314 440.662,127.426 421.727,123.687 Z" id="Path"></path>
        </g>
    </g>
</svg>
